<svg width="115" height="157" fill="none" xmlns="http://www.w3.org/2000/svg"><path fill-rule="evenodd" clip-rule="evenodd" d="M2.5 5a2.5 2.5 0 100-5 2.5 2.5 0 000 5zm44 0a2.5 2.5 0 100-5 2.5 2.5 0 000 5zm44 0a2.5 2.5 0 100-5 2.5 2.5 0 000 5zm-66 0a2.5 2.5 0 100-5 2.5 2.5 0 000 5zm44 0a2.5 2.5 0 100-5 2.5 2.5 0 000 5zm44 0a2.5 2.5 0 100-5 2.5 2.5 0 000 5zM2.5 62a2.5 2.5 0 100-5 2.5 2.5 0 000 5zm44 0a2.5 2.5 0 100-5 2.5 2.5 0 000 5zm44 0a2.5 2.5 0 100-5 2.5 2.5 0 000 5zm-66 0a2.5 2.5 0 100-5 2.5 2.5 0 000 5zm44 0a2.5 2.5 0 100-5 2.5 2.5 0 000 5zm44 0a2.5 2.5 0 100-5 2.5 2.5 0 000 5zm-110 57a2.5 2.5 0 100-5 2.5 2.5 0 000 5zm44 0a2.5 2.5 0 100-5 2.5 2.5 0 000 5zm44 0a2.5 2.5 0 100-5 2.5 2.5 0 000 5zm-66 0a2.5 2.5 0 100-5 2.5 2.5 0 000 5zm44 0a2.5 2.5 0 100-5 2.5 2.5 0 000 5zm44 0a2.5 2.5 0 100-5 2.5 2.5 0 000 5zM2.5 24a2.5 2.5 0 100-5 2.5 2.5 0 000 5zm44 0a2.5 2.5 0 100-5 2.5 2.5 0 000 5zm44 0a2.5 2.5 0 100-5 2.5 2.5 0 000 5zm-66 0a2.5 2.5 0 100-5 2.5 2.5 0 000 5zm44 0a2.5 2.5 0 100-5 2.5 2.5 0 000 5zm44 0a2.5 2.5 0 100-5 2.5 2.5 0 000 5zM2.5 81a2.5 2.5 0 100-5 2.5 2.5 0 000 5zm44 0a2.5 2.5 0 100-5 2.5 2.5 0 000 5zm44 0a2.5 2.5 0 100-5 2.5 2.5 0 000 5zm-66 0a2.5 2.5 0 100-5 2.5 2.5 0 000 5zm44 0a2.5 2.5 0 100-5 2.5 2.5 0 000 5zm44 0a2.5 2.5 0 100-5 2.5 2.5 0 000 5zm-110 57a2.5 2.5 0 100-5 2.5 2.5 0 000 5zm44 0a2.5 2.5 0 100-5 2.5 2.5 0 000 5zm44 0a2.5 2.5 0 100-5 2.5 2.5 0 000 5zm-66 0a2.5 2.5 0 100-5 2.5 2.5 0 000 5zm44 0a2.5 2.5 0 100-5 2.5 2.5 0 000 5zm44 0a2.5 2.5 0 100-5 2.5 2.5 0 000 5zM2.5 43a2.5 2.5 0 100-5 2.5 2.5 0 000 5zm44 0a2.5 2.5 0 100-5 2.5 2.5 0 000 5zm44 0a2.5 2.5 0 100-5 2.5 2.5 0 000 5zm-66 0a2.5 2.5 0 100-5 2.5 2.5 0 000 5zm44 0a2.5 2.5 0 100-5 2.5 2.5 0 000 5zm44 0a2.5 2.5 0 100-5 2.5 2.5 0 000 5zm-110 57a2.5 2.5 0 100-5 2.5 2.5 0 000 5zm44 0a2.5 2.5 0 100-5 2.5 2.5 0 000 5zm44 0a2.5 2.5 0 100-5 2.5 2.5 0 000 5zm-66 0a2.5 2.5 0 100-5 2.5 2.5 0 000 5zm44 0a2.5 2.5 0 100-5 2.5 2.5 0 000 5zm44 0a2.5 2.5 0 100-5 2.5 2.5 0 000 5zm-110 57a2.5 2.5 0 100-5 2.5 2.5 0 000 5zm44 0a2.5 2.5 0 100-5 2.5 2.5 0 000 5zm44 0a2.5 2.5 0 100-5 2.5 2.5 0 000 5zm-66 0a2.5 2.5 0 100-5 2.5 2.5 0 000 5zm44 0a2.5 2.5 0 100-5 2.5 2.5 0 000 5zm44 0a2.5 2.5 0 100-5 2.5 2.5 0 000 5z" fill="#CBD5E1"/></svg>