<svg width="157" height="115" fill="none" xmlns="http://www.w3.org/2000/svg"><path fill-rule="evenodd" clip-rule="evenodd" d="M152 2.5a2.5 2.5 0 105 0 2.5 2.5 0 00-5 0zm0 44a2.5 2.5 0 105 0 2.5 2.5 0 00-5 0zm0 44a2.5 2.5 0 105 0 2.5 2.5 0 00-5 0zm0-66a2.5 2.5 0 105 0 2.5 2.5 0 00-5 0zm0 44a2.5 2.5 0 105 0 2.5 2.5 0 00-5 0zm0 44a2.5 2.5 0 105 0 2.5 2.5 0 00-5 0zM95 2.5a2.5 2.5 0 105 0 2.5 2.5 0 00-5 0zm0 44a2.5 2.5 0 105 0 2.5 2.5 0 00-5 0zm0 44a2.5 2.5 0 105 0 2.5 2.5 0 00-5 0zm0-66a2.5 2.5 0 105 0 2.5 2.5 0 00-5 0zm0 44a2.5 2.5 0 105 0 2.5 2.5 0 00-5 0zm0 44a2.5 2.5 0 105 0 2.5 2.5 0 00-5 0zM38 2.5a2.5 2.5 0 105 0 2.5 2.5 0 00-5 0zm0 44a2.5 2.5 0 105 0 2.5 2.5 0 00-5 0zm0 44a2.5 2.5 0 105 0 2.5 2.5 0 00-5 0zm0-66a2.5 2.5 0 105 0 2.5 2.5 0 00-5 0zm0 44a2.5 2.5 0 105 0 2.5 2.5 0 00-5 0zm0 44a2.5 2.5 0 105 0 2.5 2.5 0 00-5 0zm95-110a2.5 2.5 0 105 0 2.5 2.5 0 00-5 0zm0 44a2.5 2.5 0 105 0 2.5 2.5 0 00-5 0zm0 44a2.5 2.5 0 105 0 2.5 2.5 0 00-5 0zm0-66a2.5 2.5 0 105 0 2.5 2.5 0 00-5 0zm0 44a2.5 2.5 0 105 0 2.5 2.5 0 00-5 0zm0 44a2.5 2.5 0 105 0 2.5 2.5 0 00-5 0zM76 2.5a2.5 2.5 0 105 0 2.5 2.5 0 00-5 0zm0 44a2.5 2.5 0 105 0 2.5 2.5 0 00-5 0zm0 44a2.5 2.5 0 105 0 2.5 2.5 0 00-5 0zm0-66a2.5 2.5 0 105 0 2.5 2.5 0 00-5 0zm0 44a2.5 2.5 0 105 0 2.5 2.5 0 00-5 0zm0 44a2.5 2.5 0 105 0 2.5 2.5 0 00-5 0zM19 2.5a2.5 2.5 0 105 0 2.5 2.5 0 00-5 0zm0 44a2.5 2.5 0 105 0 2.5 2.5 0 00-5 0zm0 44a2.5 2.5 0 105 0 2.5 2.5 0 00-5 0zm0-66a2.5 2.5 0 105 0 2.5 2.5 0 00-5 0zm0 44a2.5 2.5 0 105 0 2.5 2.5 0 00-5 0zm0 44a2.5 2.5 0 105 0 2.5 2.5 0 00-5 0zm95-110a2.5 2.5 0 105 0 2.5 2.5 0 00-5 0zm0 44a2.5 2.5 0 105 0 2.5 2.5 0 00-5 0zm0 44a2.5 2.5 0 105 0 2.5 2.5 0 00-5 0zm0-66a2.5 2.5 0 105 0 2.5 2.5 0 00-5 0zm0 44a2.5 2.5 0 105 0 2.5 2.5 0 00-5 0zm0 44a2.5 2.5 0 105 0 2.5 2.5 0 00-5 0zM57 2.5a2.5 2.5 0 105 0 2.5 2.5 0 00-5 0zm0 44a2.5 2.5 0 105 0 2.5 2.5 0 00-5 0zm0 44a2.5 2.5 0 105 0 2.5 2.5 0 00-5 0zm0-66a2.5 2.5 0 105 0 2.5 2.5 0 00-5 0zm0 44a2.5 2.5 0 105 0 2.5 2.5 0 00-5 0zm0 44a2.5 2.5 0 105 0 2.5 2.5 0 00-5 0zM0 2.5a2.5 2.5 0 105 0 2.5 2.5 0 00-5 0zm0 44a2.5 2.5 0 105 0 2.5 2.5 0 00-5 0zm0 44a2.5 2.5 0 105 0 2.5 2.5 0 00-5 0zm0-66a2.5 2.5 0 105 0 2.5 2.5 0 00-5 0zm0 44a2.5 2.5 0 105 0 2.5 2.5 0 00-5 0zm0 44a2.5 2.5 0 105 0 2.5 2.5 0 00-5 0z" fill="#CBD5E1"/></svg>